PathFileType	4	(X/Y/Z)	C:/Users/opensim2020/Desktop/walking_exp_matlab/subject06_walking22_straight_03.trc	
DataRate	CameraRate	NumFrames	NumMarkers	Units	OrigDataRate	OrigDataStartFrame	OrigNumFrames	
100.00	100.00	9	44	mm	100.00	1751	77	
Frame#	Time	LFHD			RFHD			LBHD			RBHD			C7			T10			CLAV			STRN			RBAK			LSHO			LUPA			LELB			LFRM			LWRA			LWRB			LFIN			RSHO			RUPA			RELB			RFRM			RWRA			RWRB			RFIN			LASI			RASI			LPSI			RPSI			LTHI			LKNE			LTIB			LANK			LHEE			LTOE			RTHI			RKNE			RTIB			RANK			RHEE			RTOE			*39			*40			*41			*42			*43			
		X1	Y1	Z1	X2	Y2	Z2	X3	Y3	Z3	X4	Y4	Z4	X5	Y5	Z5	X6	Y6	Z6	X7	Y7	Z7	X8	Y8	Z8	X9	Y9	Z9	X10	Y10	Z10	X11	Y11	Z11	X12	Y12	Z12	X13	Y13	Z13	X14	Y14	Z14	X15	Y15	Z15	X16	Y16	Z16	X17	Y17	Z17	X18	Y18	Z18	X19	Y19	Z19	X20	Y20	Z20	X21	Y21	Z21	X22	Y22	Z22	X23	Y23	Z23	X24	Y24	Z24	X25	Y25	Z25	X26	Y26	Z26	X27	Y27	Z27	X28	Y28	Z28	X29	Y29	Z29	X30	Y30	Z30	X31	Y31	Z31	X32	Y32	Z32	X33	Y33	Z33	X34	Y34	Z34	X35	Y35	Z35	X36	Y36	Z36	X37	Y37	Z37	X38	Y38	Z38	X39	Y39	Z39	X40	Y40	Z40	X41	Y41	Z41	X42	Y42	Z42	X43	Y43	Z43	X44	Y44	Z44	

68	0.670	1381.05396	473.03278	1614.96326	1511.90210	481.46768	1610.72827	1393.28088	337.93088	1567.28162	1522.54004	348.10129	1567.99158	1443.42407	337.02319	1410.75256	1438.68079	299.24652	1080.11011	1452.13086	443.38895	1329.24329	1440.41748	483.48712	1155.72534	1507.93604	253.51009	1239.48621	1286.97400	404.35403	1364.68909	1206.64685	429.92517	1168.47559	1187.62683	448.95868	1059.36047	1180.38696	560.71826	963.70374	1240.46082	675.57599	935.49756	1203.59473	646.30139	883.42255	1211.13220	734.30334	868.55670	1609.63257	386.11371	1361.94946	1690.82141	279.42899	1194.13892	1715.93335	243.16135	1079.26526	1746.48657	201.17921	969.28650	1741.97620	190.32373	814.15424	1767.62048	137.87024	846.82446	1780.79736	131.58446	762.38275	1329.77881	467.18884	914.14642	1548.81140	491.96252	936.13867	1367.29065	315.54135	947.65625	1534.84058	336.51303	961.40698	1291.06982	328.36896	606.70801	1314.65332	282.94528	448.58026	1335.13684	78.56803	293.07666	1378.19666	-51.34701	185.83511	1426.06006	-82.72734	207.88773	1378.17017	6.10708	50.73230	1622.23621	530.84137	632.43256	1592.35217	585.43713	522.19006	1605.67041	611.72595	258.91629	1566.00903	626.17554	72.88103	1522.51709	589.41217	47.52565	1564.85400	777.87054	45.17612	1444.89612	378.60461	1661.09265												 
69	0.680	1381.78381	489.21674	1617.37390	1512.51782	498.13565	1612.84033	1394.34924	354.44324	1568.97119	1523.51904	365.04050	1569.35229	1443.96106	354.73990	1412.54688	1438.79590	317.01288	1082.31018	1452.29004	461.20142	1331.12500	1441.09351	501.54776	1157.66077	1509.17224	271.76840	1241.48596	1287.35645	422.07352	1366.60803	1207.79272	446.01974	1169.82324	1189.63562	464.67877	1060.40625	1181.58997	574.64014	962.13232	1240.67078	689.31653	931.58423	1204.38306	658.45105	880.00244	1210.88110	746.19885	863.27362	1609.95044	404.63718	1363.82593	1692.51367	300.69086	1194.53491	1717.72778	265.67236	1079.47607	1748.87134	225.41653	968.98358	1744.72693	216.66495	813.85059	1770.76343	163.97978	845.71100	1783.72363	158.42366	761.03009	1331.68176	485.79327	915.47467	1550.03601	509.42035	939.44617	1366.53381	334.01352	948.93378	1534.03772	353.16138	963.96613	1292.78064	350.31891	606.31091	1315.72375	308.57919	447.22598	1335.94702	100.11757	298.65112	1378.19678	-33.12523	196.13353	1426.44580	-62.32370	220.11185	1378.60071	13.30530	55.36922	1623.22302	549.19843	636.50043	1593.25659	602.06635	524.74304	1606.59155	619.44189	259.69778	1566.09387	629.54382	73.33463	1522.88135	591.12701	48.68011	1564.63660	780.65710	43.11377	1446.09485	394.84579	1662.85144												 
70	0.690	1382.38806	505.52618	1620.22986	1513.00720	514.67114	1615.21350	1395.09741	371.16031	1570.86926	1524.25403	381.87982	1570.84326	1444.27563	372.46494	1414.54858	1438.90039	334.32770	1085.03809	1452.41711	479.07068	1333.36096	1441.48120	519.32025	1159.78784	1509.87402	289.81918	1244.00806	1287.67529	439.84915	1368.67236	1208.99573	462.12762	1171.36414	1191.65540	480.03616	1061.82861	1182.94910	587.72400	960.65521	1240.87280	702.17053	927.18042	1205.00806	669.57465	876.40546	1210.72290	756.71375	857.16779	1610.14954	423.07327	1366.12939	1694.04504	322.04727	1195.22205	1719.44348	288.60831	1079.93982	1751.17664	250.31049	968.95306	1747.30969	243.97887	813.72437	1773.95142	191.12128	844.75269	1786.93176	187.04683	760.00940	1333.36609	504.02829	917.09705	1551.33972	525.56250	943.02972	1366.13501	352.06149	950.50958	1533.63147	369.44989	966.47455	1294.42407	373.64108	605.72266	1317.23840	335.62820	445.86108	1336.58728	123.71651	303.70972	1377.88672	-12.79970	205.40352	1426.45581	-39.05564	231.24942	1378.88330	22.59879	60.39950	1624.40564	566.35712	639.91431	1593.91162	616.81335	525.96234	1606.78320	628.12769	259.71710	1565.98242	631.87292	73.45779	1523.40442	592.23065	49.24747	1564.25684	782.67999	41.81911	1447.07678	410.94492	1664.81921												 
71	0.700	1382.85535	521.86060	1623.51953	1513.22424	531.13898	1618.01807	1395.58533	387.78882	1573.05225	1524.59839	398.88779	1572.60095	1444.55505	390.02829	1417.07361	1439.04773	351.39908	1088.03699	1452.40320	496.82022	1335.99182	1441.77979	536.68103	1162.17957	1510.07336	307.74353	1246.99548	1287.85193	457.36514	1371.01306	1209.87085	478.02966	1173.18286	1193.45557	494.97681	1063.42334	1183.98352	600.39526	959.15247	1240.98486	714.15698	922.41754	1205.60522	679.67010	872.53705	1210.10620	766.10724	850.66614	1610.20691	441.41037	1368.82471	1695.30200	343.50800	1196.23828	1721.05005	311.87753	1080.72766	1753.33057	275.76514	969.14063	1749.59521	272.16721	813.80029	1776.93323	219.15459	843.97955	1790.08191	216.83658	759.17590	1335.02502	521.92224	919.24835	1552.98279	541.07452	946.81995	1366.30115	369.48090	952.40277	1533.65674	385.35699	969.07245	1296.17908	398.21826	605.08722	1319.33667	363.48398	444.81738	1337.14746	149.45169	307.74823	1377.67419	10.34692	212.95905	1426.22400	-13.27617	241.00060	1379.07764	33.72142	65.22469	1625.17163	581.67761	642.11084	1594.79993	629.69977	526.58246	1606.36475	636.12469	259.35428	1565.76660	633.00708	73.36114	1523.60266	592.56384	49.57977	1563.91077	783.71643	41.03193	1447.78955	426.92188	1667.08606												 
72	0.710	1382.99146	538.14514	1627.00415	1513.19470	547.66107	1621.13708	1395.77039	404.56870	1575.53552	1524.74561	415.74698	1574.75403	1444.58447	407.63437	1420.15955	1439.52026	367.78329	1091.40747	1452.21509	514.32660	1338.87207	1442.02869	553.59448	1164.86182	1510.24536	325.22516	1250.56738	1287.83496	474.71863	1373.57007	1210.89478	493.95917	1175.08960	1195.08813	509.33401	1065.06885	1184.72485	612.50568	957.66724	1240.82629	725.23303	917.35681	1206.09387	688.68506	868.45172	1209.46350	774.31818	843.83746	1610.16602	459.66980	1371.91150	1696.40051	364.91852	1197.67908	1722.57727	335.41949	1081.85559	1755.29089	301.73178	969.60223	1747.38159	299.69061	809.87372	1779.44055	247.75888	843.40338	1793.36133	248.26682	758.75769	1336.50830	539.20459	921.86261	1554.96375	556.44794	950.27979	1366.83325	386.21130	954.61584	1534.03247	401.23666	971.83429	1298.20410	422.81821	604.87115	1321.63696	391.83774	444.32813	1337.87537	176.99747	310.89777	1376.96729	35.40405	219.31667	1425.75293	14.70419	249.04303	1378.73657	47.63622	70.24813	1625.84436	594.16461	642.12683	1595.77588	640.79498	526.71582	1605.43994	641.42426	259.06680	1565.33264	633.24854	73.53499	1523.36938	592.51324	49.78276	1563.58948	784.20599	40.48137	1448.17151	442.95889	1669.65186												 
73	0.720	1382.84265	554.57098	1630.51514	1514.46094	565.51202	1625.19482	1395.72131	421.31876	1578.34143	1524.58313	432.55887	1577.40515	1444.56213	425.11948	1423.58936	1440.04456	384.19690	1095.14453	1451.97266	531.58881	1342.00500	1442.27429	570.20166	1167.78040	1510.60596	342.62369	1254.55017	1287.73792	491.81747	1376.19519	1211.68909	509.84332	1177.21936	1196.43323	523.14807	1066.87878	1185.83862	622.99640	956.05481	1240.77881	735.38959	911.95245	1206.48901	696.65259	864.34113	1208.85840	781.31537	836.67047	1609.99731	477.86377	1375.36450	1697.43481	386.28818	1199.57544	1724.02124	359.03436	1083.33936	1757.01135	327.93460	970.40741	1753.48779	331.22336	815.31439	1782.17212	277.58148	843.07556	1796.18579	280.18710	758.66248	1337.83362	555.95679	924.86920	1556.85339	571.82104	953.37927	1367.71973	402.65942	957.04102	1534.69324	416.97296	974.70544	1300.28259	446.94952	605.45789	1323.99048	420.15903	444.44861	1338.51050	205.35165	313.02893	1376.26807	61.21233	224.98515	1425.13428	41.58106	255.59109	1379.09009	68.55760	75.79967	1626.35742	604.71588	641.51074	1596.17578	650.99219	526.38141	1605.16028	644.21143	258.93884	1565.16345	633.53973	73.82904	1523.28113	592.37799	49.89124	1563.40051	784.65710	40.13215	1448.11072	459.23618	1672.58362												 
74	0.730	1382.34338	571.06732	1634.00391	1513.86914	582.15295	1628.67920	1395.39551	437.93320	1581.43018	1524.19128	449.42834	1580.49280	1444.41357	442.41644	1427.17529	1440.75330	400.37753	1098.92261	1451.64807	548.65729	1345.28699	1442.53174	586.61884	1170.85535	1511.25830	359.51974	1258.87000	1287.65149	508.71390	1378.94373	1212.43665	525.52991	1179.51196	1197.46387	536.92828	1068.71021	1186.72363	632.70398	954.58447	1240.58569	744.70093	906.34674	1206.53711	703.74744	860.19128	1208.05164	787.32245	829.50970	1609.72119	495.77417	1379.11340	1698.44397	407.57266	1201.90137	1725.35828	382.64090	1085.23535	1758.77722	354.68680	971.56470	1750.60730	360.35687	812.09607	1784.20435	307.70193	843.07098	1798.26135	312.60034	758.76093	1338.77283	572.12640	928.13330	1558.34424	587.25183	956.30048	1368.69336	418.63220	959.66083	1535.54187	432.77859	977.74341	1302.06689	470.57123	606.64819	1325.98669	448.32544	445.20023	1338.57251	233.14874	314.87036	1376.34167	86.87739	230.53987	1424.60681	65.11098	260.94943	1380.01196	98.20448	81.67323	1626.64575	615.10553	641.14075	1596.10083	660.48712	525.68298	1605.45276	646.56122	259.18875	1564.90820	633.61029	74.04665	1523.40112	592.31134	50.04025	1563.03418	784.74628	39.75555	1447.73401	475.65747	1675.75122												 
75	0.740	1381.56555	587.63916	1637.36279	1513.06055	598.98181	1632.24292	1394.82312	454.60681	1584.65613	1523.48193	466.25787	1583.91711	1444.32642	459.23489	1430.69763	1441.52966	416.48178	1102.68958	1451.28918	565.41748	1348.64343	1442.91980	603.00543	1174.09424	1512.39124	375.60617	1263.30164	1287.53003	525.18829	1381.80774	1213.07788	540.62421	1182.07385	1198.45862	550.02612	1070.65710	1187.51990	642.07593	952.99780	1240.20862	753.00934	900.62292	1206.80457	709.98120	856.06671	1207.43970	792.17883	822.21112	1609.35425	513.46643	1383.09375	1699.38794	428.67786	1204.50671	1726.60022	406.10178	1087.40247	1760.29187	381.56259	973.07678	1751.85828	391.72522	813.89691	1786.42834	338.91263	843.29309	1800.78943	346.88474	759.43518	1339.50977	588.09027	931.58118	1559.50183	602.62244	959.20166	1369.71631	434.47980	962.66803	1536.39258	448.58228	980.87427	1303.54675	493.77335	608.32971	1327.74170	476.46951	446.53973	1338.73743	260.61758	317.31226	1376.32971	113.72301	235.44385	1423.78613	88.78302	264.47922	1381.39331	132.37926	86.49846	1626.69568	625.05170	640.90436	1596.25159	669.17877	525.19403	1605.37292	649.35382	259.62656	1564.70251	633.97485	74.33628	1523.36633	592.43219	50.16476	1563.17261	785.23438	39.58796	1446.85010	492.34766	1679.03516												 
76	0.750	1380.47461	604.29364	1640.70581	1511.92822	615.75641	1635.79541	1394.05640	471.22037	1587.97888	1522.65662	483.02402	1587.51392	1444.21313	475.81769	1434.14258	1442.41724	432.51199	1106.35730	1450.89978	582.03851	1352.14734	1443.25830	619.18713	1177.42456	1513.49976	392.79071	1267.30957	1287.37524	541.26642	1384.73438	1213.55676	555.02222	1184.74133	1199.28394	563.02332	1072.78577	1187.90515	651.18774	951.68207	1239.76672	760.47876	894.87683	1206.93982	715.37463	851.87799	1206.13074	795.89227	815.06244	1608.92920	530.96387	1387.15222	1700.32349	449.64230	1207.35010	1727.80396	429.46448	1089.81531	1761.70776	408.61511	974.79388	1757.63257	425.11176	820.73041	1788.22058	370.45822	843.74750	1802.66980	381.41098	760.30927	1340.45398	604.53448	935.51849	1560.35596	617.98035	962.01050	1370.78772	450.18961	965.96075	1537.30701	464.35696	984.04291	1305.03638	516.62311	610.49670	1329.36389	504.54053	448.56677	1339.07019	289.23114	320.38226	1376.23621	142.82762	237.87576	1422.93018	115.36613	266.31183	1382.35901	167.56148	90.47840	1626.60889	634.44080	641.33917	1596.56787	677.06555	524.84698	1605.34546	652.04346	259.71292	1564.60144	634.29901	74.46586	1523.10168	592.32233	50.50621	1563.03027	785.28967	39.32588	1445.82336	509.00305	1682.44397												 
